<svg xmlns="http://www.w3.org/2000/svg" width="153" height="29" viewBox="0 0 153 29" fill="none"><path d="M27.039 9.62443C24.582 9.62443 22.4221 11.7567 22.4221 16.793V22.8642H18.8008V6.58882H22.4221V9.68912C23.3179 7.75085 25.5111 6.33008 27.538 6.33008C28.1701 6.33008 28.8996 6.42711 29.3986 6.62116L29.199 10.0125C28.6002 9.7538 27.8041 9.62443 27.039 9.62443Z" fill="#1a6fff"></path><path d="M46.8043 15.5661H34.0157C34.3484 18.3754 36.2089 20.1196 38.8655 20.1196C41.0587 20.1196 42.6199 19.1192 43.0499 17.3427L46.4717 18.1813C45.5758 21.3139 42.7173 23.1228 38.799 23.1228C33.4834 23.1228 30.4609 19.1192 30.4609 14.7252C30.4609 10.3335 33.3171 6.32764 38.6326 6.32764C44.0147 6.32764 46.8709 10.1395 46.8709 14.1107C46.8709 14.5982 46.8376 15.2751 46.8043 15.5661ZM43.0167 12.8863C42.7838 10.6893 41.2892 9.10681 38.6326 9.10681C36.3396 9.10681 34.7119 10.4629 34.182 12.8863H43.0167Z" fill="#1a6fff"></path><path d="M65.7379 15.5661H52.9493C53.282 18.3754 55.1425 20.1196 57.7991 20.1196C59.9923 20.1196 61.5535 19.1192 61.9835 17.3427L65.4052 18.1813C64.5094 21.3139 61.6509 23.1228 57.7326 23.1228C52.417 23.1228 49.3945 19.1192 49.3945 14.7252C49.3945 10.3335 52.2507 6.32764 57.5662 6.32764C62.9483 6.32764 65.8044 10.1395 65.8044 14.1107C65.8044 14.5982 65.7712 15.2751 65.7379 15.5661ZM61.9503 12.8863C61.7174 10.6893 60.2228 9.10681 57.5662 9.10681C55.2732 9.10681 53.6455 10.4629 53.1156 12.8863H61.9503Z" fill="#1a6fff"></path><path d="M69.226 6.58882H72.8473V9.301C73.976 7.5568 75.9031 6.33008 78.36 6.33008C81.9148 6.33008 84.4051 8.62411 84.4051 12.1426V22.8642H80.7838V12.9511C80.7838 10.9158 79.4887 9.49506 77.3621 9.49506C74.5392 9.49506 72.8449 11.8191 72.8449 15.728V22.8642H69.2236V6.58882H69.226Z" fill="#1a6fff"></path><path d="M89.0215 6.58882H91.1149V9.20397C91.9798 7.62148 94.4035 6.33008 96.927 6.33008C102.276 6.33008 105.065 10.0772 105.065 14.7277C105.065 19.3781 102.276 23.1253 96.9603 23.1253C94.7338 23.1253 92.3101 21.9309 91.1149 20.2514V28.746H89.0215V6.58882ZM102.875 14.7277C102.875 10.7888 100.515 8.20365 96.8629 8.20365C93.2749 8.20365 90.9177 10.7865 90.9177 14.7277C90.9177 18.6689 93.2749 21.2517 96.8629 21.2517C100.515 21.2494 102.875 18.6666 102.875 14.7277Z" fill="#1a6fff"></path><path d="M121.542 12.1424V22.8641H119.448V19.8932C118.453 21.8638 116.16 23.1228 113.536 23.1228C110.148 23.1228 107.857 21.1846 107.857 18.343C107.857 15.2104 110.547 13.5309 116.096 12.981L119.451 12.6576V12.2048C119.451 9.75136 117.624 8.20121 114.934 8.20121C112.377 8.20121 110.616 9.65433 110.317 12.0454L108.29 11.6573C108.789 8.45996 111.445 6.32764 114.934 6.32764C118.819 6.32995 121.542 8.68636 121.542 12.1424ZM119.451 15.3397V14.3718L116.162 14.6952C112.111 15.1157 110.051 16.3424 110.051 18.3453C110.051 20.0895 111.579 21.2516 113.705 21.2516C117.324 21.2493 119.451 19.0869 119.451 15.3397Z" fill="#1a6fff"></path><path d="M133.534 8.20365C130.745 8.20365 128.551 11.0129 128.551 16.5689V22.8665H126.458V6.58882H128.551V10.0449C129.58 7.88023 131.807 6.33008 133.867 6.33008C134.596 6.33008 135.262 6.42711 135.861 6.62116L135.727 8.59177C135.062 8.33303 134.297 8.20365 133.534 8.20365Z" fill="#1a6fff"></path><path d="M143.334 14.4041L140.974 16.4718V22.8664H138.848V0H140.974V13.6926L149.479 6.5887H152.401L144.995 12.9834L153 22.8664H150.277L143.334 14.4041Z" fill="#1a6fff"></path><path d="M9.9562 19.5466H5.77412C4.7785 19.5466 3.98248 19.2231 3.98248 18.3845C3.98248 17.837 4.34841 17.3519 5.14443 16.9638C5.97372 17.2548 6.90281 17.4166 7.9317 17.4166C11.7478 17.4166 14.4472 15.2311 14.4472 11.8744C14.4472 11.8628 14.4472 11.8836 14.4472 11.8721V11.8744C14.4472 11.4724 14.4044 11.0889 14.326 10.7193C14.3165 10.6777 14.3046 10.6361 14.2951 10.5945C14.2381 10.3566 14.162 10.1279 14.0718 9.90378C14.0195 9.77671 13.9672 9.64965 13.9054 9.5249C13.8579 9.42787 13.8056 9.33316 13.751 9.24075C13.6773 9.116 13.5965 8.99818 13.5157 8.87804C12.9145 8.02789 12.0496 7.36024 10.9898 6.92361C10.8069 6.84506 10.6168 6.78038 10.4243 6.718C10.2912 6.67642 10.1534 6.63715 10.0156 6.60249C9.94907 6.58632 9.88492 6.57015 9.81838 6.55398C9.6568 6.51702 9.49047 6.48467 9.32176 6.45695C9.25523 6.4454 9.1887 6.43847 9.12216 6.42923C8.96296 6.40844 8.80138 6.38764 8.63742 6.37378C8.45921 6.35992 8.27624 6.35299 8.09328 6.35068C8.03625 6.34837 7.97922 6.34375 7.92219 6.34375C4.14169 6.3553 1.39244 8.54769 1.39244 11.8975C1.39244 13.3829 1.92233 14.6397 2.85379 15.5753C1.49462 16.1552 0.496622 17.2525 0.496622 18.738C0.496622 19.7707 0.929087 20.5446 1.69184 21.1267C0.696221 21.9007 0 23.095 0 24.3541C0 27.4197 3.11993 28.9999 7.96496 28.9999C12.4797 28.9999 15.8967 27.4844 15.8967 24.0307C15.8967 21.0621 13.5751 19.5466 9.9562 19.5466ZM7.9317 9.09058C9.62354 9.09058 11.0184 10.1556 11.0184 11.8975C11.0184 13.607 9.62354 14.6397 7.9317 14.6397C6.20659 14.6397 4.84504 13.607 4.84504 11.8975C4.84504 10.1556 6.20659 9.09058 7.9317 9.09058ZM7.96496 26.1283C4.8783 26.1283 3.51675 25.4515 3.51675 24.1924C3.51675 23.4832 3.74962 22.804 4.4791 22.1918C4.97573 22.2888 5.54126 22.3211 6.10679 22.3211H9.35978C11.218 22.3211 12.3799 22.7393 12.3799 24.16C12.3799 25.4191 10.9186 26.1283 7.96496 26.1283Z" fill="#1a6fff"></path><path d="M14.7635 6.99072C15.9564 6.99072 16.9234 6.05053 16.9234 4.89075C16.9234 3.73096 15.9564 2.79077 14.7635 2.79077C13.5706 2.79077 12.6035 3.73096 12.6035 4.89075C12.6035 6.05053 13.5706 6.99072 14.7635 6.99072Z" fill="#00B5AD"></path></svg>