<?xml version="1.0" encoding="utf-8"?>
<!-- Generator: Adobe Illustrator 15.1.0, SVG Export Plug-In . SVG Version: 6.00 Build 0)  -->
<!DOCTYPE svg PUBLIC "-//W3C//DTD SVG 1.1//EN" "http://www.w3.org/Graphics/SVG/1.1/DTD/svg11.dtd">
<svg version="1.1" id="Layer_1" xmlns="http://www.w3.org/2000/svg" xmlns:xlink="http://www.w3.org/1999/xlink" x="0px" y="0px"
	 width="282px" height="98px" viewBox="0 0 282 98" enable-background="new 0 0 282 98" xml:space="preserve">
<g>
	<polygon fill="#FFFFFF" points="99.773,76.716 99.773,71.887 93.236,71.887 93.236,76.716 91.949,76.716 91.949,65.92 
		93.236,65.92 93.236,70.718 99.773,70.718 99.773,65.92 101.062,65.92 101.062,76.716 	"/>
	<g>
		<path fill="#FFFFFF" d="M115.348,66.97c-1.305,0-2.392,0.415-3.234,1.235c-0.845,0.82-1.272,1.88-1.272,3.148
			c0,1.233,0.429,2.275,1.274,3.096c0.847,0.819,1.918,1.235,3.186,1.235c1.274,0,2.353-0.424,3.202-1.259
			c0.856-0.838,1.288-1.893,1.288-3.136c0-1.211-0.432-2.247-1.288-3.074C117.65,67.389,116.59,66.97,115.348,66.97 M115.197,76.843
			c-1.623,0-2.994-0.527-4.075-1.565c-1.077-1.039-1.624-2.358-1.624-3.924c0-1.607,0.55-2.956,1.637-4.005
			c1.086-1.054,2.484-1.586,4.15-1.586c1.668,0,3.072,0.534,4.18,1.587c1.102,1.048,1.662,2.386,1.662,3.973
			c0,1.586-0.564,2.916-1.68,3.953C118.332,76.315,116.9,76.843,115.197,76.843"/>
	</g>
	<polygon fill="#FFFFFF" points="131.367,76.716 131.367,67.02 127.562,67.02 127.562,65.905 136.53,65.905 136.53,67.02 
		132.662,67.02 132.662,76.716 	"/>
	<polygon fill="#FFFFFF" points="144.516,76.701 144.516,65.92 150.507,65.92 150.507,67.035 145.804,67.035 145.804,70.718 
		150.347,70.718 150.347,71.84 145.804,71.84 145.804,75.588 150.659,75.588 150.659,76.701 	"/>
	<polygon fill="#FFFFFF" points="158.831,76.716 158.831,65.92 160.119,65.92 160.119,75.573 165.114,75.573 165.114,76.716 	"/>
	<g>
		<path fill="#FFFFFF" d="M175.323,76.843c-1.034,0-1.989-0.314-2.844-0.935v-1.531c0.824,0.909,1.773,1.37,2.828,1.37
			c0.532,0,0.983-0.153,1.34-0.452c0.366-0.306,0.55-0.695,0.55-1.154c0-0.73-0.516-1.417-1.532-2.05l-1.207-0.736
			c-0.737-0.449-1.267-0.895-1.572-1.323c-0.302-0.42-0.454-0.91-0.454-1.457c0-0.825,0.289-1.504,0.861-2.018
			c0.572-0.518,1.337-0.779,2.262-0.779c0.866,0,1.672,0.24,2.4,0.712v1.382c-0.756-0.64-1.572-0.965-2.435-0.965
			c-0.547,0-1.007,0.131-1.364,0.389c-0.375,0.27-0.563,0.621-0.563,1.043c0,0.369,0.136,0.714,0.403,1.032
			c0.255,0.301,0.668,0.619,1.224,0.944l1.214,0.72c1.316,0.785,1.956,1.754,1.956,2.957c0,0.855-0.277,1.527-0.845,2.059
			C176.98,76.576,176.233,76.843,175.323,76.843"/>
		<path fill="#A21984" d="M243.971,4.767c0-3.343-2.126-3.822-3.997-3.822c-4.248,0-16.911,1.671-40.791,16.714
			C183.968,7.391,172.329,4.644,155.586,4.644c-1.106,0-5.014,0.479-6.035,0.479c-1.359,0-2.634-0.355-3.994-0.355
			c-1.443,0-2.634,1.788-2.634,3.817c0,1.791,0.933,3.462,2.296,3.701c0.168,0,2.039,0.359,4.332,0.359
			c0.936,0,4.591-0.478,6.035-0.478c13.342,0,24.559,1.91,36.968,9.431c-13.259,7.52-21.16,12.177-35.524,12.177
			c-5.523,0-11.216-3.103-11.303-3.103c-0.34-0.239-0.681-0.239-1.021-0.239c-1.527,0-2.718,1.672-2.718,3.7
			c0,1.434,0.679,2.867,1.7,3.464c0.255,0.119,5.269,3.702,13.342,3.702c16.574,0,26.938-5.852,42.067-15.402
			c9.859,6.923,19.97,14.087,31.361,14.087c2.378,0,4.841-0.12,7.223-0.358c1.614-0.238,2.55-1.909,2.464-4.059
			c-0.084-2.27-1.359-3.581-2.888-3.462c-2.293,0.118-4.505,0.358-6.799,0.358c-9.265,0-18.104-5.732-24.985-10.506
			c20.734-12.416,31.442-13.491,34.588-13.491c0.425,0,0.849,0.118,1.274,0.118C242.778,8.584,243.971,6.913,243.971,4.767"/>
		<path fill="#A21984" d="M249.489,89.696c-9.574,0.491-17.379-6.143-17.91-16.474c-0.949-18.494,20.142-30.187,32.266-38.735
			c1.975,15.369,2.734,23.26,2.978,27.978C267.422,74.201,262.02,89.054,249.489,89.696 M278.12,17.003
			c-0.71,0.038-1.294,0.194-1.866,0.608c0.007,0.127-1.877,0.35-6.994,4.578l-0.097-1.913c-0.244-4.721,0.107-11.771,0.322-14.468
			l-0.025-0.51c-0.11-2.168-1.734-3.747-3.741-3.645c-1.417,0.072-2.787,1.166-3.181,2.72c-0.985,3.889-2.11,14.302-8.969,14.654
			c-1.062,0.055-1.437-2.612-1.468-3.249c-0.288-3.31,0.355-6.923,1.02-10.153c0.097-0.39,0.197-0.779,0.18-1.158
			c-0.104-2.042-1.847-3.614-3.736-3.52c-1.539,0.079-2.786,1.165-3.175,2.849c-0.974,4.141-1.585,8.392-1.369,12.602
			c0.382,5.096,3.615,10.429,8.817,10.162c3.43-0.176,7.193-3.055,8.795-6.462c-0.229,2.442,0.111,6.772,0.111,6.772
			c-15.442,10.892-39.337,23.372-38.141,46.709c0.752,14.668,11.802,24.46,25.397,23.764c16.787-0.861,24.605-19.422,23.787-35.363
			c-0.348-6.759-1.461-16.931-3.54-32.042c7.444-5.114,9.501-6.625,9.846-6.771c0.798-0.68,1.335-1.73,1.27-3.007
			C281.272,18.377,279.775,16.919,278.12,17.003"/>
		<path fill="#A21984" d="M122.845,29.962c-1.969,0-3.115-0.914-3.115-3.292c0-6.214,6.062-11.333,10.485-13.707
			c0.492,2.374,2.457,4.203,4.75,4.203c0.656,0,1.146-0.184,1.801-0.365C135.621,21.733,127.758,29.962,122.845,29.962
			 M135.951,8.786c-1.193,0-2.256,0.149-2.922,0.445c-0.4-2.076-1.992-3.559-3.852-3.559c-0.531,0-1.062,0.149-1.461,0.296
			c-7.04,3.263-14.213,10.675-14.213,19.717c0,6.672,4.383,11.418,10.362,11.418c8.233,0,19.127-11.267,19.127-20.46v-1.186
			C142.463,11.157,139.672,8.786,135.951,8.786"/>
		<path fill="#A21984" d="M113.074,32.558c0.08-2.181-1.319-3.959-3.104-4.201c-10.998-0.928-8.049-25.902-18.641-25.81
			c-5.641,0.05-24.249,23.241-28.208,23.275C57.975,25.869,57.258,0.54,47.852,0.621C41.617,0.677,16.008,26.747,8.925,32.056
			c-0.196,0.261-0.493,0.389-1.081,0.782l1.253-3.729c1.835-5.264,6.505-14.523,6.445-21.308c-0.073-8.448-6.57-4.423-6.528,0.441
			c0.025,3.071-4.922,14.51-5.888,17.464c-0.771,2.311-2.516,6.552-2.493,8.982c0.036,4.224,2.932,7.019,6.098,6.989
			c1.487-0.013,3.264-0.542,5.525-2.226c5.803-4.402,31.416-29.96,35.474-30.381c3.166-0.283,5.371,25.415,15.169,25.331
			c7.522-0.065,23.566-22.341,28.508-23.279c3.367-0.03,4.082,25.172,18.439,25.685C111.729,36.921,112.999,34.988,113.074,32.558"
			/>
	</g>
</g>
</svg>
